<svg width="525" height="240" viewBox="0 0 525 240" fill="none" xmlns="http://www.w3.org/2000/svg">
<path d="M37.92 163.841C31.76 163.841 26.24 162.841 21.36 160.841C16.48 158.841 12.56 155.881 9.6 151.961C6.72 148.041 5.2 143.321 5.04 137.801H26.88C27.2 140.921 28.28 143.321 30.12 145.001C31.96 146.601 34.36 147.401 37.32 147.401C40.36 147.401 42.76 146.721 44.52 145.361C46.28 143.921 47.16 141.961 47.16 139.481C47.16 137.401 46.44 135.681 45 134.321C43.64 132.961 41.92 131.841 39.84 130.961C37.84 130.081 34.96 129.081 31.2 127.961C25.76 126.281 21.32 124.601 17.88 122.921C14.44 121.241 11.48 118.761 9 115.481C6.52 112.201 5.28 107.921 5.28 102.641C5.28 94.801 8.12 88.681 13.8 84.281C19.48 79.801 26.88 77.561 36 77.561C45.28 77.561 52.76 79.801 58.44 84.281C64.12 88.681 67.16 94.841 67.56 102.761H45.36C45.2 100.041 44.2 97.921 42.36 96.401C40.52 94.801 38.16 94.001 35.28 94.001C32.8 94.001 30.8 94.681 29.28 96.041C27.76 97.321 27 99.201 27 101.681C27 104.401 28.28 106.521 30.84 108.041C33.4 109.561 37.4 111.201 42.84 112.961C48.28 114.801 52.68 116.561 56.04 118.241C59.48 119.921 62.44 122.361 64.92 125.561C67.4 128.761 68.64 132.881 68.64 137.921C68.64 142.721 67.4 147.081 64.92 151.001C62.52 154.921 59 158.041 54.36 160.361C49.72 162.681 44.24 163.841 37.92 163.841ZM77.7881 120.761C77.7881 112.441 79.5881 105.041 83.1881 98.561C86.7881 92.001 91.7881 86.921 98.1881 83.321C104.668 79.641 111.988 77.801 120.148 77.801C130.148 77.801 138.708 80.441 145.828 85.721C152.948 91.001 157.708 98.201 160.108 107.321H137.548C135.868 103.801 133.468 101.121 130.348 99.281C127.308 97.441 123.828 96.521 119.908 96.521C113.588 96.521 108.468 98.721 104.548 103.121C100.628 107.521 98.6681 113.401 98.6681 120.761C98.6681 128.121 100.628 134.001 104.548 138.401C108.468 142.801 113.588 145.001 119.908 145.001C123.828 145.001 127.308 144.081 130.348 142.241C133.468 140.401 135.868 137.721 137.548 134.201H160.108C157.708 143.321 152.948 150.521 145.828 155.801C138.708 161.001 130.148 163.601 120.148 163.601C111.988 163.601 104.668 161.801 98.1881 158.201C91.7881 154.521 86.7881 149.441 83.1881 142.961C79.5881 136.481 77.7881 129.081 77.7881 120.761ZM193.194 78.761V163.001H172.674V78.761H193.194ZM283.425 163.001H262.905L228.585 111.041V163.001H208.065V78.761H228.585L262.905 130.961V78.761H283.425V163.001ZM358.899 78.761V95.201H336.579V163.001H316.059V95.201H293.739V78.761H358.899Z" fill="#0E202C"/>
<path d="M392.915 0.610039C412.825 -1.4052 432.923 1.59061 451.379 9.32482C469.835 17.059 486.064 29.2861 498.589 44.8932C511.114 60.5003 519.537 78.9918 523.092 98.685C526.646 118.378 525.22 138.648 518.941 157.649C512.663 176.65 501.732 193.779 487.145 207.477C472.557 221.176 454.775 231.009 435.417 236.081C416.059 241.153 395.74 241.304 376.309 236.52C356.878 231.735 338.952 222.167 324.163 208.687L333.863 198.044C346.878 209.907 362.653 218.327 379.752 222.537C396.851 226.748 414.732 226.615 431.767 222.151C448.802 217.688 464.45 209.035 477.287 196.98C490.125 184.925 499.743 169.852 505.268 153.131C510.793 136.41 512.049 118.573 508.921 101.243C505.793 83.9128 498.381 67.6402 487.359 53.906C476.337 40.1718 462.055 29.412 445.814 22.6058C429.572 15.7997 411.886 13.1634 394.366 14.9368L392.915 0.610039Z" fill="url(#paint0_linear_4968_5951)"/>
<path d="M405 29.998C417.496 29.998 429.855 32.6002 441.29 37.6387C452.725 42.6773 462.985 50.0419 471.418 59.2635C479.851 68.4851 486.27 79.3617 490.269 91.2006C494.267 103.039 495.756 115.581 494.641 128.027L483.884 127.064C484.866 116.111 483.555 105.075 480.037 94.6563C476.518 84.238 470.869 74.6667 463.448 66.5516C456.027 58.4366 446.998 51.9558 436.935 47.5219C426.872 43.0879 415.997 40.798 405 40.798V29.998Z" fill="url(#paint1_linear_4968_5951)"/>
<path d="M390.557 103.952C396.817 104.012 403.078 103.978 409.338 103.984C409.812 103.975 410.295 104.02 411.031 104.056C408.119 110.279 405.319 116.253 402.526 122.238C396.455 135.234 390.394 148.233 384.343 161.234C383.839 162.319 383.278 162.763 382.026 162.745C376.016 162.671 370.007 162.713 363.997 162.713H362.238C362.509 162.048 362.676 161.597 362.876 161.162C371.372 142.563 379.861 123.961 388.343 105.355C388.837 104.268 389.401 103.94 390.557 103.952ZM428.303 89.2695C439.548 113.797 450.661 138.073 461.864 162.496C461.268 162.538 460.859 162.594 460.442 162.594C454.081 162.594 447.722 162.57 441.363 162.63C440.275 162.63 439.808 162.236 439.396 161.301C437.983 158.073 436.415 154.907 435.038 151.67C434.558 150.552 433.973 150.141 432.724 150.146C422.69 150.203 412.653 150.18 402.616 150.18H400.661C400.855 149.622 400.959 149.216 401.135 148.838C404.268 141.92 407.422 135.011 410.528 128.081C410.907 127.241 411.351 126.889 412.296 126.919C415.426 126.979 418.555 126.942 421.685 126.942H423.566C421.479 122.173 419.551 117.702 417.551 113.267C417.353 112.879 417.255 112.447 417.268 112.012C417.281 111.576 417.405 111.151 417.626 110.775C421.164 103.726 424.649 96.6497 428.303 89.2695Z" fill="url(#paint2_linear_4968_5951)"/>
<path d="M422.866 77.9987C421.096 81.8914 419.471 85.492 417.819 89.0807C417.056 90.744 416.657 93.0421 415.348 93.8498C413.974 94.7023 411.711 94.1479 409.836 94.1658C405.022 94.1866 400.211 94.1658 395.399 94.1658H393.569C394.269 92.6427 394.857 91.352 395.456 90.0644C397.179 86.3833 398.884 82.6962 400.658 79.0359C400.872 78.5918 401.448 78.0314 401.85 78.0255C408.748 77.9808 415.64 77.9987 422.866 77.9987Z" fill="#0E202C"/>
<defs>
<linearGradient id="paint0_linear_4968_5951" x1="525" y1="137.625" x2="387.375" y2="88.125" gradientUnits="userSpaceOnUse">
<stop stop-color="#13DFA2"/>
<stop offset="1" stop-color="#13DFA2" stop-opacity="0"/>
</linearGradient>
<linearGradient id="paint1_linear_4968_5951" x1="408.75" y1="35.623" x2="489.375" y2="121.873" gradientUnits="userSpaceOnUse">
<stop stop-color="#026973" stop-opacity="0"/>
<stop offset="0.504808" stop-color="#026973"/>
<stop offset="1" stop-color="#026973" stop-opacity="0"/>
</linearGradient>
<linearGradient id="paint2_linear_4968_5951" x1="412.051" y1="89.2695" x2="412.051" y2="162.746" gradientUnits="userSpaceOnUse">
<stop offset="0.504808" stop-color="#13DFA2"/>
<stop offset="1" stop-color="#024DFF"/>
</linearGradient>
</defs>
</svg>
