<svg width="45" height="36" viewBox="0 0 45 36" fill="none" xmlns="http://www.w3.org/2000/svg">
<path d="M9.60636 21.209C6.8724 21.209 4.69434 23.4416 4.69434 26.1211C4.69434 26.4568 4.9734 26.7359 5.30918 26.7359C5.64493 26.7359 5.92401 26.4568 5.92401 26.1211C5.92401 24.1109 7.59841 22.4365 9.60859 22.4365C9.94434 22.4365 10.2234 22.1574 10.2234 21.8216C10.2191 21.4881 9.93995 21.209 9.60636 21.209Z" fill="#0B33A4"/>
<path d="M12.1723 0C10.1621 0 8.60113 0.8372 7.70723 1.50651C7.14909 1.95345 6.75885 2.56607 6.59096 3.23762L5.64258 7.25573C5.86496 7.14454 6.03284 7.08786 6.25742 6.97667C6.53648 6.86547 6.81555 6.75428 7.09462 6.64092C8.32206 6.19397 9.7174 5.9716 11.1127 5.9716C12.7304 5.9716 14.2936 6.25067 15.7457 6.86551C16.1359 7.03338 16.5262 7.20126 16.8619 7.42364C17.0843 7.53483 17.3089 7.64602 17.5313 7.8139C17.7536 7.92509 17.9215 8.03628 18.0894 8.20416V4.07486C18.0894 3.12648 17.6991 2.28928 16.9731 1.73115C15.968 0.948481 14.3503 0.0567063 12.1723 0Z" fill="#0B33A4"/>
<path d="M44.1538 24.2792V24.1113L43.9859 23.3853V23.3286L41.4743 12.8921V12.8354V12.7242L41.1952 11.5512C41.0274 10.9364 40.7483 10.435 40.3013 10.0447C39.8544 9.65446 39.4074 9.26423 38.906 8.98516C38.4591 8.70609 37.9576 8.42703 37.454 8.25914C36.1153 7.70101 34.6066 7.36523 33.1001 7.36523C31.0354 7.36523 29.0252 7.92337 27.3507 8.98293C26.9038 9.262 26.5135 9.54106 26.1233 9.87684C25.9009 10.0447 25.733 10.2126 25.5652 10.3783C24.9503 10.9931 24.6168 11.7736 24.6168 12.6108V13.3368C23.9475 12.722 23.1103 12.3885 22.1619 12.3885C21.2135 12.3885 20.3196 12.7242 19.707 13.3368V12.6108C19.707 11.7736 19.3712 10.9931 18.8131 10.3783C18.6452 10.2104 18.4228 9.98802 18.1982 9.82015C17.808 9.4844 17.4178 9.20531 16.9708 8.92624C16.4694 8.59049 15.9657 8.36811 15.4076 8.14575C14.1234 7.6443 12.7281 7.36526 11.2783 7.36526C9.71507 7.36526 8.26526 7.64432 6.9244 8.25916C6.42295 8.48155 5.91932 8.70611 5.47236 8.98518C4.97091 9.32093 4.46728 9.6545 4.07703 10.0447C3.63009 10.435 3.35101 10.9386 3.18312 11.5513L2.90406 12.7242V12.8354V12.8921L0.33575 23.3856L0.167875 24.1116V24.2228V24.334C0.0566842 24.8921 0 25.4502 0 26.0651C0 31.5352 4.46507 36.0004 9.93533 36.0004C14.5683 36.0004 18.4753 32.8195 19.5347 28.5225C20.204 29.303 21.2091 29.8067 22.3253 29.8067C23.4416 29.8067 24.4467 29.3052 25.116 28.5225C26.2323 32.8197 30.0825 36.0004 34.7153 36.0004C40.1855 36.0004 44.6507 31.5353 44.6507 26.0651C44.6507 25.4502 44.594 24.8921 44.4828 24.334C44.1536 24.3361 44.1538 24.2792 44.1538 24.2792ZM9.60644 32.8756C5.8674 32.8756 2.85192 29.8625 2.85192 26.121C2.85192 22.382 5.86494 19.3665 9.60644 19.3665C13.3455 19.3665 16.361 22.3795 16.361 26.121C16.3588 29.8601 13.3458 32.8756 9.60644 32.8756ZM21.9964 28.5762C20.6578 28.5762 19.5416 27.4599 19.5416 26.1213C19.5416 24.726 20.6578 23.6664 21.9964 23.6664C23.3351 23.6664 24.4513 24.7827 24.4513 26.1213C24.4513 27.4599 23.3351 28.5762 21.9964 28.5762ZM34.3864 32.8756C30.6474 32.8756 27.6319 29.8625 27.6319 26.121C27.6319 22.382 30.6449 19.3665 34.3864 19.3665C38.1255 19.3665 41.141 22.3795 41.141 26.121C41.1955 29.8601 38.1258 32.8756 34.3864 32.8756Z" fill="#0B33A4"/>
<path d="M34.3863 21.209C34.0506 21.209 33.7715 21.488 33.7715 21.8238C33.7715 22.1596 34.0506 22.4387 34.3863 22.4387C36.3965 22.4387 38.0709 24.1131 38.0709 26.1232C38.0709 26.459 38.35 26.7381 38.6857 26.7381C39.0215 26.7381 39.3006 26.459 39.3006 26.1232C39.2984 23.3871 37.1225 21.209 34.3863 21.209Z" fill="#0B33A4"/>
<path d="M36.2854 1.56315C35.337 0.89384 33.8305 0.0566406 31.8204 0.0566406C29.6445 0.0566406 28.0246 1.00502 27.0762 1.78775C26.4069 2.34588 25.96 3.23979 25.96 4.13146V8.26075C26.1278 8.14956 26.3502 7.98169 26.5748 7.87049C26.7972 7.7593 27.0217 7.64811 27.1896 7.53474C28.9207 6.64084 30.8742 6.13941 32.939 6.13941C34.3343 6.13941 35.6729 6.36179 36.9571 6.80872C37.2361 6.91992 37.5152 7.03111 37.7943 7.14448C37.9622 7.25567 38.1845 7.31235 38.3524 7.42354L37.404 3.40543C37.2885 2.56823 36.8436 1.9534 36.2854 1.56315Z" fill="#0B33A4"/>
</svg>
