<svg width="14" height="14" viewBox="0 0 14 14" fill="none" xmlns="http://www.w3.org/2000/svg">
<path d="M13.9439 9.93277C14.1144 9.48012 13.8848 8.97718 13.4322 8.80662C12.9795 8.63605 12.4744 8.86566 12.306 9.3183C11.8075 10.6456 11.5582 11.3104 11.1821 11.6624C11.0268 11.8068 10.8541 11.927 10.6638 12.0211C10.2046 12.2507 9.49175 12.2507 8.07477 12.2507H5.92743C4.51045 12.2507 3.79977 12.2507 3.33838 12.0211C3.14813 11.927 2.97538 11.8068 2.82013 11.6624C2.44402 11.3126 2.19473 10.6456 1.69616 9.3183C1.52779 8.86566 1.02266 8.63605 0.570014 8.80662C0.117367 8.97718 -0.112237 9.48012 0.0583258 9.93277C0.633428 11.4656 0.950499 12.3097 1.62619 12.9417C1.9039 13.2019 2.21879 13.4184 2.55991 13.5889C3.38867 14 4.28959 14 5.92743 14H8.07477C9.7126 14 10.6135 14 11.4423 13.5889C11.7834 13.4206 12.0961 13.2019 12.376 12.9417C13.0517 12.3119 13.3688 11.4656 13.9439 9.93277Z" fill="white"/>
<path d="M3.004 5.40552C2.5448 5.72697 2.50544 6.36548 2.88374 6.74378L5.22788 9.08792C5.48372 9.34377 5.78111 9.55369 6.12005 9.68052C7.06033 10.0348 8.07277 9.78986 8.73972 9.12291L11.1188 6.74378C11.5015 6.36111 11.4556 5.70947 10.9767 5.39021C10.629 5.15842 10.1611 5.22621 9.86587 5.52142L7.87597 7.51131V2.44473C7.87597 2.29822 7.87597 1.51538 7.87597 0.87468C7.87597 0.391419 7.48455 0 7.00129 0C6.51803 0 6.12661 0.391419 6.12661 0.87468V5.46675V7.50913L4.1564 5.53891C3.85026 5.23277 3.35825 5.15405 3.004 5.40334V5.40552Z" fill="white"/>
</svg>
