<svg width="19" height="24" viewBox="0 0 19 24" fill="none" xmlns="http://www.w3.org/2000/svg">
<path d="M0.730234 14.854C0.728009 16.4015 1.12348 17.9237 1.87872 19.2745C2.63395 20.6252 3.72361 21.7593 5.04316 22.5678C6.36272 23.3763 7.86789 23.8322 9.41431 23.8918C10.9607 23.9513 12.4965 23.6124 13.8743 22.9077C15.2521 22.203 16.4257 21.1561 17.2825 19.8674C18.1394 18.5787 18.6507 17.0914 18.7674 15.5483C18.8842 14.0051 18.6024 12.4579 17.9492 11.0549C17.296 9.65196 16.2932 8.4404 15.0371 7.53644C15.1371 7.13805 15.1858 6.72851 15.182 6.31778C15.1774 4.87891 14.6027 3.50052 13.5836 2.48469C12.5646 1.46886 11.1844 0.898437 9.74547 0.898438C8.30659 0.898437 6.92639 1.46886 5.90734 2.48469C4.88829 3.50052 4.3135 4.87891 4.30894 6.31778C4.30514 6.72845 4.35383 7.13793 4.4538 7.53626C3.30085 8.37672 2.36266 9.47756 1.71561 10.7492C1.06856 12.0208 0.73094 13.4272 0.730234 14.854ZM9.76168 1.88867C10.936 1.8899 12.0619 2.35693 12.8923 3.18728C13.7227 4.01763 14.1897 5.14348 14.191 6.3178C14.1917 6.53357 14.1762 6.7491 14.1446 6.96255C13.9687 6.86532 13.7891 6.77477 13.6069 6.68935C13.5499 6.66259 13.4913 6.63954 13.4337 6.61404C13.3024 6.55573 13.1706 6.49859 13.0366 6.44649C12.9622 6.41758 12.8868 6.39187 12.8116 6.36487C12.6916 6.32176 12.5713 6.27989 12.4496 6.24179C12.369 6.21656 12.288 6.19337 12.2068 6.17035C12.0873 6.13651 11.9674 6.10507 11.8469 6.07603C11.7648 6.05628 11.6827 6.03732 11.6001 6.01987C11.4762 5.99371 11.3519 5.97121 11.2271 5.95023C11.1479 5.93689 11.069 5.92277 10.9895 5.91158C10.8524 5.89228 10.7149 5.87816 10.5773 5.86525C10.5102 5.85896 10.4434 5.85031 10.3762 5.84556C10.1714 5.83105 9.96639 5.82234 9.76168 5.82234C9.55135 5.82234 9.34205 5.8308 9.13365 5.84502C9.06618 5.84961 8.99937 5.85805 8.93215 5.86413C8.79107 5.87689 8.65029 5.89089 8.51042 5.9101C8.43252 5.9208 8.35528 5.93438 8.2778 5.94708C8.149 5.96816 8.02075 5.99099 7.89324 6.01755C7.8138 6.03412 7.73487 6.05218 7.65597 6.07087C7.53013 6.10062 7.40508 6.13309 7.28082 6.16827C7.20455 6.18981 7.12843 6.21143 7.05277 6.23496C6.92381 6.27503 6.79631 6.31919 6.66926 6.365C6.60125 6.38955 6.53293 6.41275 6.46549 6.43894C6.32087 6.49507 6.1784 6.55658 6.03669 6.62018C5.98906 6.64156 5.94049 6.66064 5.89319 6.68284C5.70826 6.76976 5.5256 6.86199 5.34636 6.96161C5.31455 6.74851 5.29902 6.53329 5.29991 6.31782C5.30559 5.13923 5.77854 4.01102 6.61499 3.18069C7.45144 2.35036 8.58309 1.8857 9.76168 1.88867ZM5.30669 8.14316C6.6292 7.2727 8.17842 6.81023 9.76168 6.81326C9.95535 6.81326 10.1492 6.82058 10.3431 6.83522C12.3687 6.98427 14.2631 7.89352 15.6464 9.38066C17.0298 10.8678 17.7998 12.8229 17.8022 14.854C17.7992 16.243 17.4364 17.6075 16.7492 18.8146C16.0621 20.0217 15.0739 21.0301 13.8811 21.7418C12.6882 22.4534 11.3314 22.8438 9.94274 22.8751C8.55411 22.9064 7.18106 22.5774 5.95739 21.9202C4.73371 21.2631 3.70115 20.3001 2.96032 19.1252C2.21949 17.9502 1.79566 16.6034 1.73013 15.216C1.6646 13.8286 1.95961 12.4478 2.5864 11.2083C3.2132 9.96878 4.1504 8.91275 5.30669 8.14316Z" fill="#0B33A4"/>
<path d="M9.7616 9.02612C11.3065 9.02805 12.7876 9.64261 13.88 10.735C14.9724 11.8274 15.5869 13.3085 15.5889 14.8534C15.5889 14.9848 15.6411 15.1108 15.734 15.2037C15.8269 15.2967 15.9529 15.3489 16.0843 15.3489C16.2157 15.3489 16.3418 15.2967 16.4347 15.2037C16.5276 15.1108 16.5798 14.9848 16.5798 14.8534C16.5779 13.0457 15.859 11.3125 14.5807 10.0343C13.3025 8.75602 11.5693 8.03706 9.7616 8.03516C9.63019 8.03516 9.50416 8.08736 9.41124 8.18028C9.31832 8.2732 9.26611 8.39923 9.26611 8.53064C9.26611 8.66205 9.31832 8.78808 9.41124 8.881C9.50416 8.97392 9.63019 9.02612 9.7616 9.02612Z" fill="#0B33A4"/>
<path d="M9.25401 15.0711V17.0076C9.25401 17.139 9.30621 17.265 9.39913 17.3579C9.49206 17.4508 9.61808 17.503 9.74949 17.503C9.8809 17.503 10.0069 17.4508 10.0999 17.3579C10.1928 17.265 10.245 17.139 10.245 17.0076V15.0786C10.6445 14.9626 10.989 14.7067 11.2154 14.3577C11.4419 14.0086 11.5351 13.5897 11.4781 13.1776C11.4211 12.7655 11.2177 12.3876 10.905 12.1131C10.5923 11.8386 10.1913 11.6858 9.77527 11.6827C9.35923 11.6795 8.95594 11.8262 8.63914 12.0959C8.32234 12.3656 8.11319 12.7403 8.04993 13.1515C7.98667 13.5628 8.07352 13.983 8.29461 14.3355C8.5157 14.6879 8.85625 14.949 9.25401 15.0711ZM9.76159 12.6837C9.90804 12.6837 10.0512 12.7272 10.1729 12.8086C10.2947 12.89 10.3896 13.0056 10.4456 13.1409C10.5016 13.2763 10.5163 13.4251 10.4877 13.5688C10.4591 13.7124 10.3886 13.8443 10.285 13.9479C10.1815 14.0515 10.0495 14.122 9.9059 14.1506C9.76226 14.1791 9.61338 14.1645 9.47807 14.1085C9.34276 14.0525 9.2271 13.9576 9.1457 13.8358C9.0643 13.7141 9.02083 13.571 9.02078 13.4245C9.02103 13.2281 9.09916 13.0398 9.23803 12.9009C9.37691 12.7621 9.56519 12.6839 9.76159 12.6837Z" fill="#0B33A4"/>
</svg>
